<?xml version="1.0" encoding="UTF-8"?>
<svg xmlns="http://www.w3.org/2000/svg" viewBox="0 0 100 128"><clipPath id="mk1"><path d="M0.00,128.00 L0.00,50.00 A50.00,50.00 0 0 1 100.00,50.00 L100.00,128.00 Z"/></clipPath><path d="M0.00,128.00 L0.00,50.00 A50.00,50.00 0 0 1 100.00,50.00 L100.00,128.00 Z" fill="#1A164C"/><g clip-path="url(#mk1)"><g><path d="M-3.0,116.4 C-2.2,115.5 0.2,112.9 1.6,111.0 C3.0,109.1 4.5,107.0 5.3,105.0 C6.1,103.0 6.3,101.0 6.3,99.0 C6.3,97.0 5.9,95.5 5.5,93.0 C5.1,90.5 4.2,86.6 3.8,84.0 C3.4,81.4 3.2,80.1 3.0,77.6 C2.8,75.1 2.7,71.9 2.7,69.0 C2.7,66.1 2.9,62.5 3.0,60.0 C3.1,57.5 3.2,56.5 3.3,54.0 C3.4,51.5 3.5,48.0 3.5,45.0 C3.5,42.0 3.5,39.0 3.4,36.0 C3.3,33.0 3.2,30.0 3.2,27.0 C3.1,24.0 3.1,21.0 3.1,18.0 C3.2,15.0 3.3,12.0 3.5,9.0 C3.8,6.0 4.4,1.5 4.5,0.0" fill="none" stroke="#00B1B2" stroke-width="1.1" stroke-linecap="round" stroke-linejoin="round"/><path d="M40.3,-3.0 C41.6,-2.6 45.2,-1.2 48.0,-0.7 C50.8,-0.3 54.0,-0.3 57.0,-0.2 C60.0,-0.1 63.5,-0.3 66.0,-0.1 C68.5,0.1 70.0,0.4 72.0,1.0 C74.0,1.7 76.1,2.6 78.0,3.9 C79.9,5.2 82.1,7.4 83.6,9.0 C85.1,10.6 85.9,11.9 87.0,13.5 C88.1,15.1 89.0,16.6 90.0,18.4 C91.0,20.3 92.0,22.3 93.0,24.4 C94.0,26.4 95.0,28.7 96.0,30.7 C97.0,32.7 98.5,35.5 99.0,36.5" fill="none" stroke="#00B1B2" stroke-width="1.1" stroke-linecap="round" stroke-linejoin="round"/><path d="M102.0,104.2 C101.0,104.4 98.5,105.1 96.0,105.4 C93.5,105.8 90.0,106.2 87.0,106.5 C84.0,106.8 80.6,106.9 78.0,107.1 C75.4,107.4 73.9,107.5 71.4,108.0 C68.9,108.5 65.4,109.5 63.0,110.4 C60.6,111.3 58.6,112.4 57.0,113.5 C55.4,114.6 54.2,114.9 53.3,117.0 C52.4,119.1 52.0,124.5 51.7,126.0" fill="none" stroke="#00B1B2" stroke-width="1.1" stroke-linecap="round" stroke-linejoin="round"/><path d="M102.0,96.5 C100.5,96.9 95.5,98.2 93.0,98.7 C90.5,99.2 89.5,99.3 87.0,99.6 C84.5,99.9 81.0,100.1 78.0,100.4 C75.0,100.7 71.5,101.0 69.0,101.3 C66.5,101.6 65.5,101.7 63.0,102.0 C60.5,102.3 57.0,103.0 54.0,103.3 C51.0,103.7 48.0,104.1 45.0,104.1 C42.0,104.2 38.5,104.0 36.0,103.6 C33.5,103.2 32.0,102.7 30.0,101.6 C28.0,100.6 25.6,98.9 24.0,97.4 C22.4,96.0 21.5,94.7 20.2,93.0 C19.0,91.3 17.6,89.0 16.6,87.0 C15.7,85.0 15.0,83.5 14.3,81.0 C13.7,78.5 13.0,75.0 12.6,72.0 C12.3,69.0 12.4,66.0 12.4,63.0 C12.4,60.0 12.6,57.0 12.7,54.0 C12.8,51.0 12.8,48.0 12.8,45.0 C12.7,42.0 12.5,38.5 12.3,36.0 C12.2,33.5 12.1,32.5 11.9,30.0 C11.7,27.5 11.4,24.0 11.3,21.0 C11.1,18.0 11.0,15.0 11.1,12.0 C11.2,9.0 11.4,5.5 11.8,3.0 C12.1,0.5 13.0,-2.0 13.3,-3.0" fill="none" stroke="#00B1B2" stroke-width="1.1" stroke-linecap="round" stroke-linejoin="round"/><path d="M30.7,-3.0 C31.6,-2.5 33.9,-0.8 36.0,0.2 C38.1,1.2 40.9,2.3 43.4,3.0 C45.9,3.7 48.2,4.0 51.0,4.4 C53.8,4.9 57.5,5.2 60.0,5.6 C62.5,6.1 64.0,6.4 66.0,7.3 C68.0,8.1 70.3,9.3 72.0,10.6 C73.7,11.9 75.0,13.3 76.5,15.0 C77.9,16.7 79.3,19.0 80.5,21.0 C81.7,23.0 82.6,25.0 83.6,27.0 C84.5,29.0 85.4,31.0 86.3,33.0 C87.3,35.0 88.2,37.1 89.3,39.0 C90.4,40.9 91.9,43.0 93.0,44.5 C94.1,46.0 94.6,46.6 96.1,48.0 C97.6,49.4 101.0,52.2 102.0,53.1" fill="none" stroke="#00B1B2" stroke-width="1.1" stroke-linecap="round" stroke-linejoin="round"/><path d="M0.4,129.0 C1.3,128.0 4.0,124.5 5.9,123.0 C7.7,121.5 9.6,120.8 11.6,120.0 C13.6,119.2 15.4,118.5 18.0,118.4 C20.6,118.3 24.5,118.7 27.0,119.2 C29.5,119.6 31.0,120.2 33.0,121.2 C35.0,122.2 38.0,124.6 39.0,125.2" fill="none" stroke="#00B1B2" stroke-width="1.1" stroke-linecap="round" stroke-linejoin="round"/><path d="M102.0,89.5 C101.0,89.9 98.0,91.2 96.0,91.8 C94.0,92.5 92.5,92.8 90.0,93.3 C87.5,93.7 84.0,94.2 81.0,94.5 C78.0,94.9 75.0,95.1 72.0,95.3 C69.0,95.6 65.5,95.8 63.0,96.0 C60.5,96.2 59.5,96.3 57.0,96.3 C54.5,96.3 50.5,96.3 48.0,96.1 C45.5,95.9 44.1,95.7 42.0,95.2 C39.9,94.7 37.7,94.0 35.7,93.0 C33.7,92.0 31.8,90.9 30.0,89.4 C28.2,87.9 26.4,85.9 25.1,84.0 C23.8,82.1 22.8,80.0 22.1,78.0 C21.3,76.0 20.9,74.5 20.6,72.0 C20.3,69.5 20.2,66.0 20.2,63.0 C20.2,60.0 20.6,57.0 20.7,54.0 C20.8,51.0 21.0,48.0 20.9,45.0 C20.9,42.0 20.6,39.0 20.4,36.0 C20.2,33.0 19.8,30.0 19.6,27.0 C19.4,24.0 19.1,21.0 19.2,18.0 C19.3,15.0 19.4,11.3 20.2,9.0 C21.0,6.7 21.9,4.8 24.0,4.2 C26.1,3.7 30.5,5.1 33.0,5.6 C35.5,6.2 36.8,6.9 39.0,7.4 C41.2,8.0 43.8,8.5 46.3,9.0 C48.8,9.5 51.7,10.0 54.0,10.6 C56.3,11.2 58.0,11.6 60.0,12.5 C62.0,13.4 64.2,14.7 66.0,16.1 C67.8,17.6 69.2,19.2 70.5,21.0 C71.9,22.8 73.0,25.0 74.1,27.0 C75.2,29.0 76.0,31.0 76.9,33.0 C77.8,35.0 78.6,37.0 79.6,39.0 C80.7,41.0 81.9,43.2 83.2,45.0 C84.4,46.8 85.6,48.1 87.0,49.6 C88.4,51.1 90.2,52.7 91.7,54.0 C93.2,55.3 94.3,56.0 96.0,57.3 C97.7,58.6 101.0,61.0 102.0,61.7" fill="none" stroke="#F89521" stroke-width="1.1" stroke-linecap="round" stroke-linejoin="round"/><path d="M12.1,129.0 C13.1,128.5 15.7,126.5 18.1,126.0 C20.6,125.5 24.5,125.4 27.0,125.7 C29.5,126.1 32.0,127.8 33.0,128.2" fill="none" stroke="#F89521" stroke-width="1.1" stroke-linecap="round" stroke-linejoin="round"/><path d="M102.0,78.2 C101.2,79.2 99.1,82.5 97.1,84.0 C95.2,85.5 92.5,86.3 90.3,87.0 C88.2,87.7 86.6,88.0 84.0,88.5 C81.4,88.9 77.5,89.4 75.0,89.7 C72.5,90.0 71.5,90.1 69.0,90.3 C66.5,90.5 63.0,90.7 60.0,90.8 C57.0,90.8 53.5,90.6 51.0,90.4 C48.5,90.1 47.0,89.8 45.0,89.2 C43.0,88.7 41.0,88.1 39.0,86.9 C37.0,85.7 34.5,83.7 33.0,82.2 C31.5,80.8 30.9,80.2 30.0,78.0 C29.0,75.8 27.8,72.0 27.4,69.0 C27.1,66.0 27.5,63.0 27.7,60.0 C28.0,57.0 28.6,54.0 28.9,51.0 C29.2,48.0 29.4,45.0 29.4,42.0 C29.4,39.0 29.1,36.0 29.1,33.0 C29.0,30.0 28.8,26.5 29.2,24.0 C29.6,21.5 29.9,19.4 31.5,18.0 C33.1,16.6 36.3,15.7 39.0,15.4 C41.7,15.2 45.5,16.0 48.0,16.5 C50.5,17.0 52.0,17.4 54.0,18.4 C56.0,19.4 58.4,21.0 60.0,22.4 C61.6,23.9 62.6,25.2 63.8,27.0 C65.0,28.8 66.1,31.0 67.1,33.0 C68.1,35.0 68.9,37.0 69.9,39.0 C70.9,41.0 71.9,43.0 73.2,45.0 C74.6,47.0 76.6,49.5 77.9,51.0 C79.2,52.5 79.5,52.8 81.0,54.1 C82.5,55.5 85.1,57.6 87.0,59.1 C88.9,60.6 90.8,61.8 92.3,63.0 C93.8,64.2 94.6,64.5 96.1,66.0 C97.6,67.5 100.4,71.0 101.2,72.0" fill="none" stroke="#00B1B2" stroke-width="1.1" stroke-linecap="round" stroke-linejoin="round"/><path d="M72.0,84.2 C70.3,84.4 66.0,85.0 63.0,85.2 C60.0,85.3 56.5,85.3 54.0,85.0 C51.5,84.8 50.0,84.5 48.0,83.9 C46.0,83.2 43.8,82.5 41.8,81.0 C39.9,79.5 37.6,77.0 36.5,75.0 C35.3,73.0 34.9,71.5 34.7,69.0 C34.6,66.5 35.1,62.5 35.6,60.0 C36.1,57.5 36.9,56.0 37.6,54.0 C38.3,52.0 39.0,50.2 39.8,48.0 C40.5,45.8 41.1,43.0 42.0,40.7 C42.9,38.4 43.1,35.1 45.0,34.3 C46.9,33.5 51.1,35.0 53.1,36.0 C55.1,37.0 55.7,38.8 57.0,40.3 C58.3,41.8 59.2,43.3 60.7,45.0 C62.2,46.7 64.5,49.1 66.0,50.6 C67.5,52.1 67.9,52.6 69.4,54.0 C70.9,55.4 73.3,57.4 75.0,58.9 C76.7,60.4 78.4,61.7 79.9,63.0 C81.4,64.3 82.6,65.1 84.0,66.6 C85.4,68.1 88.1,70.0 88.6,72.0 C89.1,74.0 88.3,77.2 87.0,78.9 C85.7,80.6 83.3,81.2 81.0,82.0 C78.7,82.9 74.6,83.6 73.1,84.0 C71.6,84.4 73.7,84.0 72.0,84.2 Z" fill="none" stroke="#00B1B2" stroke-width="1.1" stroke-linecap="round" stroke-linejoin="round"/><path d="M23.8,82.6 C23.8,82.5 23.8,82.5 23.8,82.4 C23.8,82.4 23.7,82.3 23.7,82.3 C23.7,82.2 23.7,82.2 23.7,82.1 C23.7,82.1 23.7,82.0 23.7,81.9 C23.7,81.9 23.8,81.8 23.8,81.8 C23.8,81.7 23.8,81.6 23.9,81.6 C23.9,81.5 24.0,81.5 24.0,81.4 C24.1,81.4 24.1,81.3 24.2,81.3 C24.2,81.3 24.3,81.2 24.4,81.2 C24.4,81.2 24.5,81.1 24.6,81.1 C24.7,81.1 24.8,81.1 24.8,81.1 C24.9,81.1 25.0,81.1 25.1,81.1 C25.2,81.1 25.3,81.1 25.4,81.2 C25.5,81.2 25.5,81.2 25.6,81.3 C25.7,81.3 25.8,81.4 25.9,81.4 C25.9,81.5 26.0,81.6 26.1,81.7 C26.2,81.7 26.2,81.8 26.3,81.9 C26.3,82.0 26.4,82.1 26.4,82.2 C26.4,82.3 26.5,82.4 26.5,82.6 C26.5,82.7 26.5,82.8 26.5,82.9 C26.5,83.0 26.5,83.1 26.4,83.3 C26.4,83.4 26.4,83.5 26.3,83.6 C26.3,83.7 26.2,83.9 26.1,84.0 C26.1,84.1 26.0,84.2 25.9,84.3 C25.8,84.4 25.7,84.5 25.6,84.5 C25.5,84.6 25.4,84.7 25.2,84.7 C25.1,84.8 25.0,84.9 24.8,84.9 C24.7,84.9 24.5,85.0 24.4,85.0 C24.3,85.0 24.1,85.0 23.9,85.0 C23.8,85.0 23.6,84.9 23.5,84.9 C23.3,84.9 23.2,84.8 23.0,84.7 C22.9,84.7 22.8,84.6 22.6,84.5 C22.5,84.4 22.4,84.3 22.3,84.2 C22.1,84.0 22.0,83.9 21.9,83.8 C21.8,83.6 21.8,83.5 21.7,83.3 C21.6,83.2 21.6,83.0 21.5,82.8 C21.5,82.6 21.4,82.5 21.4,82.3 C21.4,82.1 21.4,81.9 21.4,81.7 C21.5,81.5 21.5,81.4 21.6,81.2 C21.6,81.0 21.7,80.8 21.8,80.6 C21.9,80.5 22.0,80.3 22.1,80.1 C22.2,80.0 22.3,79.8 22.5,79.7 C22.6,79.6 22.8,79.4 23.0,79.3 C23.1,79.2 23.3,79.1 23.5,79.0 C23.7,79.0 23.9,78.9 24.1,78.9 C24.3,78.8 24.5,78.8 24.8,78.8 C25.0,78.8 25.2,78.8 25.4,78.8 C25.6,78.8 25.9,78.9 26.1,79.0 C26.3,79.0 26.5,79.1 26.7,79.2 C26.9,79.3 27.1,79.5 27.3,79.6 C27.4,79.7 27.6,79.9 27.8,80.1 C27.9,80.3 28.1,80.4 28.2,80.7 C28.3,80.9 28.4,81.1 28.5,81.3 C28.6,81.5 28.7,81.8 28.7,82.0 C28.8,82.2 28.8,82.5 28.8,82.7 C28.8,83.0 28.8,83.2 28.8,83.5 C28.7,83.7 28.7,84.0 28.6,84.2 C28.5,84.5 28.4,84.7 28.3,85.0 C28.1,85.2 28.0,85.4 27.8,85.6 C27.6,85.8 27.5,86.0 27.2,86.2 C27.0,86.4 26.8,86.5 26.6,86.7 C26.4,86.8 26.1,86.9 25.8,87.0 C25.6,87.1 25.3,87.2 25.0,87.2 C24.8,87.3 24.5,87.3 24.2,87.3 C23.9,87.3 23.6,87.3 23.3,87.2 C23.1,87.2 22.8,87.1 22.5,87.0 C22.2,86.9 22.0,86.8 21.7,86.7 C21.4,86.5 21.2,86.3 21.0,86.1 C20.7,85.9 20.5,85.7 20.3,85.5 C20.1,85.3 20.0,85.0 19.8,84.8 C19.7,84.5 19.5,84.2 19.4,83.9 C19.3,83.6 19.2,83.3 19.2,83.0 C19.1,82.7 19.1,82.4 19.1,82.1 C19.1,81.7 19.1,81.4 19.2,81.1 C19.2,80.8 19.3,80.5 19.4,80.2 C19.6,79.9 19.7,79.6 19.9,79.3 C20.0,79.0 20.2,78.7 20.5,78.5 C20.7,78.2 20.9,78.0 21.2,77.8 C21.4,77.6 21.9,77.3 22.0,77.2" fill="none" stroke="#00B1B2" stroke-width="1.1" stroke-linecap="round"/><circle cx="24.5" cy="82.5" r="0.9" fill="#00B1B2"/></g></g><rect x="49.2" y="0" width="1.6" height="36" fill="#FBF4E6"/><circle cx="50" cy="50" r="15" fill="#FBF4E6"/><circle cx="50" cy="50" r="9" fill="#F89521"/></svg>